<?xml version="1.0" encoding="utf-8"?>
<!-- Generator: Adobe Illustrator 17.1.0, SVG Export Plug-In . SVG Version: 6.00 Build 0)  -->
<!DOCTYPE svg PUBLIC "-//W3C//DTD SVG 1.1//EN" "http://www.w3.org/Graphics/SVG/1.1/DTD/svg11.dtd">
<svg version="1.1" id="Warstwa_1" xmlns="http://www.w3.org/2000/svg" xmlns:xlink="http://www.w3.org/1999/xlink" x="0px" y="0px"
	 viewBox="0 0 1920 600" enable-background="new 0 0 1920 600" xml:space="preserve">
<g>
	<path fill="#FFFFFF" d="M717.8,402l-47-116.1l-47,116.1H717.8z M636,192h72.5l153,359.6h-81.8L746,471.7H595.1l-32.2,79.8H483
		L636,192L636,192z"/>
	<path fill="#FFFFFF" d="M896.9,192h78.5v142.2h144.9V192h78.5v358.9h-78.5V406.7H975.4v144.2h-78.5V192L896.9,192z"/>
	<path fill="#FFFFFF" d="M1278.7,192h269v70.4h-191.2v73.1h167.7V406h-167.7v75.1h193.9v71.1h-271.7V192L1278.7,192z"/>
	<path fill="#FFFFFF" d="M1781.1,367.1c38.2,0,60.4-20.8,60.4-51v-1.3c0-33.5-23.5-51.7-61.7-51.7H1702v103.3L1781.1,367.1
		L1781.1,367.1z M1622.8,192h163c45.6,0,80.5,12.7,103.3,36.2c19.5,20.1,30.9,48.3,30.9,81.8v1.3c0,58.4-31.5,94.6-76.5,111.4
		l87.9,128.1h-91.9L1763,436.2h-1.3h-60.4v114.7h-78.5L1622.8,192L1622.8,192z"/>
	<rect y="192" fill="#C30034" width="78.5" height="71.1"/>
	<rect x="157.7" y="49.1" fill="#C30034" width="78.5" height="71.1"/>
	<rect y="49.1" fill="#C30034" width="78.5" height="71.1"/>
	<path fill="#FFFFFF" d="M296.5,192H157v71.1h138.9c64.4,0,107.3,44.9,107.3,108.7v1.3c0,63.7-43.6,107.3-107.3,107.3h-60.4V334.2
		H157v216.7h138.9c112,0,189.2-78.5,189.2-179.8v-1.3C486.4,269.8,408.6,192,296.5,192"/>
</g>
</svg>
