<?xml version="1.0" encoding="utf-8"?>
<!-- Generator: Adobe Illustrator 17.1.0, SVG Export Plug-In . SVG Version: 6.00 Build 0)  -->
<!DOCTYPE svg PUBLIC "-//W3C//DTD SVG 1.1//EN" "http://www.w3.org/Graphics/SVG/1.1/DTD/svg11.dtd">
<svg version="1.1" id="Warstwa_1" xmlns="http://www.w3.org/2000/svg" xmlns:xlink="http://www.w3.org/1999/xlink" x="0px" y="0px"
	 viewBox="0 0 286.2 74.8" enable-background="new 0 0 286.2 74.8" xml:space="preserve">
<g>
	<path fill="#14315B" d="M107,52.6l-7-17.3l-7,17.3H107z M94.8,21.3h10.8l22.8,53.6h-12.2L111.2,63H88.7l-4.8,11.9H72L94.8,21.3
		L94.8,21.3z"/>
	<path fill="#14315B" d="M133.7,21.3h11.7v21.2H167V21.3h11.7v53.5H167V53.3h-21.6v21.5h-11.7V21.3L133.7,21.3z"/>
	<path fill="#14315B" d="M190.6,21.3h40.1v10.5h-28.5v10.9h25v10.5h-25v11.2h28.9V75h-40.5V21.3L190.6,21.3z"/>
	<path fill="#14315B" d="M265.5,47.4c5.7,0,9-3.1,9-7.6v-0.2c0-5-3.5-7.7-9.2-7.7h-11.6v15.4L265.5,47.4L265.5,47.4z M241.9,21.3
		h24.3c6.8,0,12,1.9,15.4,5.4c2.9,3,4.6,7.2,4.6,12.2v0.2c0,8.7-4.7,14.1-11.4,16.6l13.1,19.1h-13.7l-11.4-17.1h-0.2h-9v17.1h-11.7
		L241.9,21.3L241.9,21.3z"/>
	<rect x="0" y="21.3" fill="#C30034" width="11.7" height="10.6"/>
	<rect x="23.5" y="0" fill="#C30034" width="11.7" height="10.6"/>
	<rect x="0" y="0" fill="#C30034" width="11.7" height="10.6"/>
	<path fill="#14315B" d="M44.2,21.3H23.4v10.6h20.7c9.6,0,16,6.7,16,16.2v0.2c0,9.5-6.5,16-16,16h-9V42.5H23.4v32.3h20.7
		c16.7,0,28.2-11.7,28.2-26.8v-0.2C72.5,32.9,60.9,21.3,44.2,21.3"/>
</g>
</svg>
