<svg xmlns="http://www.w3.org/2000/svg" viewBox="0 0 286.2 74.8"><path d="M107 52.6l-7-17.3-7 17.3h14zM94.8 21.3h10.8l22.8 53.6h-12.2l-5-11.9H88.7l-4.8 11.9H72l22.8-53.6zm38.9 0h11.7v21.2H167V21.3h11.7v53.5H167V53.3h-21.6v21.5h-11.7V21.3zm56.9 0h40.1v10.5h-28.5v10.9h25v10.5h-25v11.2h28.9V75h-40.5V21.3zm74.9 26.1c5.7 0 9-3.1 9-7.6v-.2c0-5-3.5-7.7-9.2-7.7h-11.6v15.4l11.8.1zm-23.6-26.1h24.3c6.8 0 12 1.9 15.4 5.4 2.9 3 4.6 7.2 4.6 12.2v.2c0 8.7-4.7 14.1-11.4 16.6l13.1 19.1h-13.7l-11.4-17.1h-9.2v17.1h-11.7V21.3z" fill="#14315b"/><path d="M0 21.3h11.7v10.6H0zM23.5 0h11.7v10.6H23.5zM0 0h11.7v10.6H0z" fill="#c30034"/><path fill="#14315b" d="M44.2 21.3H23.4v10.6h20.7c9.6 0 16 6.7 16 16.2v.2c0 9.5-6.5 16-16 16h-9V42.5H23.4v32.3h20.7c16.7 0 28.2-11.7 28.2-26.8v-.2c.2-14.9-11.4-26.5-28.1-26.5"/></svg>